<svg xmlns="http://www.w3.org/2000/svg" width="14" height="14" viewBox="0 0 14 14"><g fill="none" fill-rule="evenodd"><path fill="#2A5F9E" clip-rule="evenodd" d="M3.5 0A1.5 1.5 0 0 0 2 1.5v11A1.5 1.5 0 0 0 3.5 14h7a1.5 1.5 0 0 0 1.5-1.5V4.5a.5.5 0 0 0-.146-.354l-4-4A.5.5 0 0 0 7.5 0H3.5z"/><path fill="#F0F0F0" clip-rule="evenodd" d="M7.5 0v3a1.5 1.5 0 0 0 1.5 1.5h3L7.5 0z"/><text x="7" y="10.5" font-family="monospace" font-size="4" font-weight="bold" fill="#F0F0F0" text-anchor="middle">XLS</text></g></svg>
