<svg xmlns="http://www.w3.org/2000/svg" width="16" height="16" viewBox="0 0 16 16"><g fill="none"><path fill="url(#L_grad_a)" d="M5.458 2.1c.289-.055.542.177.542.471v4.43A1 1 0 0 0 7 8h4.43c.293 0 .525.253.47.542A5.501 5.501 0 0 1 1 7.5a5.5 5.5 0 0 1 4.458-5.4"/><path fill="url(#L_grad_b)" d="M13 6.574v-.005A5.57 5.57 0 0 0 7.429 1A.436.436 0 0 0 7 1.445V6.5a.5.5 0 0 0 .5.5h5.057c.24 0 .443-.186.443-.426"/><path fill="url(#L_grad_c)" d="M13 7a1 1 0 1 1 2 0v7a1 1 0 1 1-2 0z"/><path fill="url(#L_grad_d)" d="M10 9a1 1 0 1 1 2 0v5a1 1 0 1 1-2 0z"/><path fill="url(#L_grad_e)" d="M7 11a1 1 0 1 1 2 0v3a1 1 0 1 1-2 0z"/><defs><linearGradient id="L_grad_a" x1="11.986" x2="-1.276" y1="14.76" y2="1.619" gradientUnits="userSpaceOnUse"><stop stop-color="#1E4D8C"/><stop offset="1" stop-color="#4A7FC1"/></linearGradient><linearGradient id="L_grad_b" x1="13.25" x2="12.98" y1="5.15" y2=".033" gradientUnits="userSpaceOnUse"><stop stop-color="#1E4D8C"/><stop offset="1" stop-color="#4A7FC1"/></linearGradient><linearGradient id="L_grad_c" x1="14.737" x2="20.318" y1="3.235" y2="5.551" gradientUnits="userSpaceOnUse"><stop stop-color="#F97316"/><stop offset="1" stop-color="#FB923C"/></linearGradient><linearGradient id="L_grad_d" x1="10.5" x2="14.468" y1="8.5" y2="10.553" gradientUnits="userSpaceOnUse"><stop stop-color="#F97316"/><stop offset="1" stop-color="#FB923C"/></linearGradient><linearGradient id="L_grad_e" x1="7.5" x2="10.007" y1="10" y2="11.849" gradientUnits="userSpaceOnUse"><stop stop-color="#F97316"/><stop offset="1" stop-color="#FB923C"/></linearGradient></defs></g></svg>
